<?xml version="1.0" encoding="UTF-8" standalone="no"?>
<svg width="640" xmlns="http://www.w3.org/2000/svg" xmlns:xlink="http://www.w3.org/1999/xlink" height="640">
 <defs>
  <filter id="filter4637" style="color-interpolation-filters:sRGB" height="1.1516" width="2.3079" y="-.0758" x="-.65395">
   <feGaussianBlur id="feGaussianBlur4639" stdDeviation="3.21979"/>
  </filter>
  <filter id="filter7580" style="color-interpolation-filters:sRGB" height="1.72" width="1.72" y="-.36" x="-.36">
   <feGaussianBlur id="feGaussianBlur7582" stdDeviation="4.69721"/>
  </filter>
  <filter id="filter3947" style="color-interpolation-filters:sRGB">
   <feGaussianBlur id="feGaussianBlur3949" stdDeviation="2.75118"/>
  </filter>
  <linearGradient id="linearGradient7027" y2=".50001" y1=".50001" x1="-.09388">
   <stop id="stop7608" stop-color="#501616" offset="0"/>
   <stop id="stop7616" stop-color="#a02c2c" offset=".37104"/>
   <stop id="stop7614" stop-color="#800000" offset=".53624"/>
   <stop id="stop7610" stop-color="#2b0000" offset="1"/>
  </linearGradient>
  <linearGradient id="linearGradient7029" y2=".50001" x2="1.1225" y1=".50001" x1="-.16446">
   <stop id="stop4596" stop-color="#362e0f" stop-opacity=".844" offset="0"/>
   <stop id="stop4614" stop-color="#dfdfb3" offset=".19906"/>
   <stop id="stop4612" stop-color="#ebe6b6" offset=".4254"/>
   <stop id="stop4602" stop-color="#e7dcaf" offset=".67241"/>
   <stop id="stop4598" stop-color="#ded2a6" stop-opacity="0" offset="1"/>
  </linearGradient>
 </defs>
 <g transform="translate(0 111.875)">
  <path id="path5230" transform="rotate(-90 79.441 207.91)" fill="url(#linearGradient7027)" d="m51.111 263.8c16.084-2.283 35.601-3.671 56.798 0.067017-0.65099-24.591-1.919-50.565-2.436-76.334 0.149-2.634 1.83-3.201 2.214-4.95 0.119-5.159-0.056-9.01-0.189-13.701-0.035004-1.295-2.148-2.094-2.085-3.052 0.178-3.613-0.137-7.887-0.137-7.887-0.355-0.70999-0.489-0.912-0.756-1.597-0.223-0.571-0.19299-1.701-1.114-2.118-11.36-3.365-29.591-2.355-44.788-0.991-3.3564 0.888-4.9135 2.883-5.1529 5.69l0.0841 6.653-2.1483 2.338-0.1353 14.845c0.7921 1.411 1.8092 2.37 1.9275 5.128l-2.2182 75.82 0.0897 0.089h0.089798-0.044098z"/>
  <g stroke-width=".197">
    <path id="rect6004" transform="rotate(-90 369.38 208.51)" fill="#2b0000" d="m334.47 15.943c3.1-3.4917 5.408-8.7898 6.05-14.584 1.446-13.042 1.082-26.944 1.082-26.944 14.916-3.2662 37.754-3.0613 56.828 0.1811-0.168 49.647 9.445 38.694 25.243 60.686 10.681 14.356 18.103 32.133 18.363 50.239 0.018982 106.4-0.47101 210.4-0.452 318.95-0.54102 8.813-0.27402 18.856-3.103 26.05-0.53601 1.363-0.84601 2.766-1.342 4.057-3.613 9.42-29.778 10.239-46.84 10.387l-44.964-0.147s-34.008-0.16901-41.622-6.042c-1.938-1.496-4.517-9.636-5.373-13.235-0.267-1.124-0.952-0.84601-0.952-0.84601l0.004-2.671c-1.707-113.6 0.384-225.39 0.57501-338.09 3.813-43.114 30.428-60.681 36.503-67.992z"/>
    <g fill="#fff">
    <path id="path7584" opacity=".5" d="m176.3 219.53c0 5.1568-4.1804 9.3373-9.3373 9.3373-5.1568 0-9.3372-4.1804-9.3372-9.3373s4.1804-9.3373 9.3372-9.3373c5.1569 0 9.3373 4.1804 9.3373 9.3373z" transform="rotate(-90 166.96 219.53)" filter="url(#filter7580)"/>
    <path id="path7570" opacity=".5" d="m242.63 241.86c0 12.319-9.9866 22.306-22.306 22.306s-22.306-9.9866-22.306-22.306 9.9866-22.306 22.306-22.306 22.306 9.9866 22.306 22.306z" transform="rotate(-90 220.32 241.86)" filter="url(#filter7580)"/>
    </g>
  </g>
  <path id="rect6012" opacity=".6" d="m90.337 146.19c4.9851-0.74199 9.9701-0.784 14.955 0l0.711 137.56c-4.751 4.146-10.133 5.91-15.666 7.103v-144.67z" fill-opacity=".903" transform="rotate(-90 98.169 218.24)" filter="url(#filter4637)" stroke-width=".348" fill="#ffe1cc"/>
  <g stroke-width=".197">
    <path id="path7560" d="m345.91 49.645c15.173 2.5073 20.738 7.8078 29.198 15.11v362.05l50.741 0.72-28.492-399.11-12.232-16.189c-5.824 3.7481-13.44 5.7055-20.888 5.8964-8.375 0.2137-36.006 31.178-45.67 62.1 5.017 25.259 15.448-23.418 27.343-30.58v0.000099z" transform="rotate(-90 372.21 219.88)" filter="url(#filter3947)" fill="#2b0000"/>
    <path id="path6007" transform="rotate(-90 373.06 208.52)" fill="url(#linearGradient7029)" d="m445.73 121.73c0.018799 106.4-0.29126 65.641-0.27252 174.19-7.3657 1.1832-105.32 5.1229-144.89-2.3019-0.30804-44.304-0.30249-107.15 0.95471-173.5 29.453-1.7877 91.187-1.5523 144.2 1.608z"/>
  </g>
  <g stroke="#000" fill="none">
    <path id="path7503" transform="rotate(-90 292.52 208.45)" d="m221.04 208.93c46.633-1.3658 94.797-2.6841 142.97 0.50879"/>
    <path id="path7505" transform="rotate(-90 451.57 208.71)" d="m379.32 206.85c46.744 4.0458 95.04 4.6008 144.5 2.544"/>
  </g>
  <g stroke-width="3" fill="#500">
    <path id="rect3951" opacity=".5" transform="rotate(-90 35.228 207.91)" d="m9.4387 206.91c16.966-0.90706 34.133-1.0106 51.579 0v2.7348c-17.423-1.1495-34.636-1.2481-51.579 0v-2.7348z"/>
    <path id="path3954" opacity=".4" transform="rotate(-90 55.546 207.88)" d="m27.34 206.62c18.9-2.4121 41.788-1.4488 56.412 0-0.12903 0.62523-2.0631 2.6722-2.1002 3.994-16.678-2.1865-34.909-2.4917-52.437 0-0.039461-1.8517-1.1402-2.7601-1.8747-3.994z"/>
  </g>
 </g>
</svg>
